<?xml version="1.0" standalone="no"?>
<!DOCTYPE svg PUBLIC "-//W3C//DTD SVG 20010904//EN"
 "http://www.w3.org/TR/2001/REC-SVG-20010904/DTD/svg10.dtd">
<svg version="1.0" xmlns="http://www.w3.org/2000/svg"
 width="500.000000pt" height="500.000000pt" viewBox="0 0 500.000000 500.000000"
 preserveAspectRatio="xMidYMid meet">

<g transform="translate(0.000000,500.000000) scale(0.100000,-0.100000)"
fill="#000000" stroke="none">
<path d="M3165 4931 c-37 -23 -825 -478 -1495 -863 -272 -157 -586 -338 -697
-403 l-203 -118 0 -588 c0 -488 2 -589 14 -589 12 0 439 245 2296 1318 427
247 868 501 997 575 78 45 141 86 139 92 -3 11 5 6 -411 248 -530 308 -598
347 -604 347 -3 0 -19 -9 -36 -19z"/>
<path d="M2645 3136 c-57 -36 -729 -424 -1090 -631 -231 -133 -628 -363 -702
-407 l-83 -49 0 -590 c0 -324 2 -589 5 -589 5 0 329 186 1170 672 176 102 379
219 450 260 72 41 393 227 715 413 322 186 597 345 612 354 16 9 28 19 28 23
0 4 -35 27 -77 51 -43 24 -269 153 -502 287 -234 133 -432 244 -440 246 -9 2
-47 -16 -86 -40z"/>
<path d="M1398 922 c-273 -158 -493 -290 -490 -294 4 -3 231 -135 505 -292
l497 -285 0 580 c0 318 -3 579 -7 578 -5 0 -231 -130 -505 -287z"/>
</g>
</svg>
