<?xml version="1.0" standalone="no"?>
<!DOCTYPE svg PUBLIC "-//W3C//DTD SVG 20010904//EN"
 "http://www.w3.org/TR/2001/REC-SVG-20010904/DTD/svg10.dtd">
<svg version="1.0" xmlns="http://www.w3.org/2000/svg"
 width="512.000000pt" height="512.000000pt" viewBox="0 0 512.000000 512.000000"
 preserveAspectRatio="xMidYMid meet">

<g transform="translate(0.000000,512.000000) scale(0.100000,-0.100000)"
fill="#000000" stroke="none">
<path d="M2380 4794 c-539 -49 -1022 -274 -1401 -653 -346 -347 -555 -760
-636 -1256 -24 -153 -24 -497 0 -650 78 -478 280 -887 604 -1226 396 -412 933
-656 1507 -685 153 -8 186 -1 237 52 32 33 34 39 34 102 0 51 -5 73 -20 94
-30 40 -86 68 -136 68 -92 1 -177 64 -268 200 -130 194 -222 446 -295 807
l-23 113 344 0 c383 0 390 1 440 66 53 70 35 173 -39 226 -33 23 -33 23 -410
26 l-376 3 -9 117 c-10 151 -10 573 0 725 l9 117 618 0 617 0 7 -77 c3 -43 9
-177 12 -298 8 -248 14 -275 80 -316 81 -50 183 -19 225 68 22 45 22 52 16
277 -4 127 -10 257 -13 289 l-7 57 461 0 460 0 16 -72 c28 -130 37 -210 44
-378 7 -151 9 -168 30 -198 71 -99 219 -86 273 25 21 43 22 54 16 212 -16 419
-136 807 -355 1141 -356 546 -910 906 -1547 1005 -97 15 -425 27 -515 19z
m257 -334 c24 -10 65 -41 91 -67 164 -164 297 -482 386 -920 l23 -113 -577 0
-577 0 23 113 c121 596 347 1007 554 1007 19 0 54 -9 77 -20z m-697 -162
c-117 -226 -213 -540 -275 -900 l-6 -38 -419 0 c-231 0 -420 2 -420 5 0 12 65
134 111 207 193 312 467 557 800 717 103 50 222 97 251 100 3 1 -15 -41 -42
-91z m1298 58 c398 -153 730 -427 951 -784 46 -73 111 -195 111 -207 0 -3
-189 -5 -419 -5 l-419 0 -6 28 c-3 15 -10 56 -16 92 -49 287 -156 623 -265
828 -24 45 -39 82 -34 82 5 0 49 -15 97 -34z m-1626 -1438 c-9 -158 -9 -558 0
-715 l8 -123 -459 0 -459 0 -15 68 c-33 143 -41 233 -41 412 0 179 8 269 41
413 l15 67 459 0 459 0 -8 -122z m53 -1195 c62 -360 160 -682 275 -900 27 -51
44 -93 39 -93 -21 0 -189 70 -284 118 -312 157 -579 401 -764 700 -46 73 -111
195 -111 207 0 3 189 5 420 5 l419 0 6 -37z"/>
<path d="M3215 1986 c-41 -18 -83 -69 -91 -111 -16 -86 -15 -87 307 -410 l299
-300 -276 -275 c-151 -151 -288 -295 -304 -319 -84 -125 27 -279 173 -240 36
9 82 51 340 307 l297 296 303 -301 c329 -329 331 -330 417 -304 47 14 107 78
115 125 15 78 11 83 -308 404 l-302 302 292 293 c160 160 298 306 307 324 44
88 -19 204 -118 220 -87 14 -88 13 -411 -308 l-301 -298 -289 290 c-160 160
-304 297 -322 305 -40 17 -89 17 -128 0z"/>
</g>
</svg>
